<?xml version="1.0" standalone="no"?>
<!DOCTYPE svg PUBLIC "-//W3C//DTD SVG 20010904//EN"
 "http://www.w3.org/TR/2001/REC-SVG-20010904/DTD/svg10.dtd">
<svg version="1.0" xmlns="http://www.w3.org/2000/svg"
 width="256.000000pt" height="256.000000pt" viewBox="0 0 256.000000 256.000000"
 preserveAspectRatio="xMidYMid meet">
<metadata>
Created by potrace 1.11, written by Peter Selinger 2001-2013
</metadata>
<g transform="translate(0.000000,256.000000) scale(0.100000,-0.100000)"
fill="#000000" stroke="none">
<path d="M302 1973 c7 -16 63 -106 125 -201 l113 -173 0 -332 c0 -343 -4 -387
-42 -440 -16 -22 -96 -74 -105 -68 -9 5 -25 0 -19 -6 10 -10 334 -11 349 -1 8
5 6 8 -5 8 -30 0 -32 1 -68 23 -42 26 -56 41 -77 87 -15 30 -17 82 -18 368 -1
182 1 332 4 332 3 -1 62 -83 131 -183 104 -151 359 -499 379 -517 5 -4 45 -53
99 -119 10 -14 11 -13 5 4 -6 18 -5 19 13 5 10 -8 23 -21 27 -27 4 -7 18 -18
30 -24 22 -12 22 -11 -1 14 -13 14 -19 27 -14 31 5 3 19 -8 31 -25 13 -17 25
-28 28 -25 4 3 -2 15 -11 25 -13 15 -15 24 -7 38 7 15 4 28 -14 59 -68 112
-70 126 -5 36 23 -32 39 -47 35 -33 -5 17 -4 22 5 16 9 -5 11 -4 6 4 -4 6 -11
9 -15 7 -4 -3 -13 5 -21 17 -12 20 -12 21 4 8 9 -8 19 -11 23 -7 3 3 15 -2 27
-11 17 -16 17 -13 -4 22 -13 22 -39 61 -57 87 l-33 48 0 274 c0 261 11 390 30
369 7 -7 184 -439 332 -810 23 -57 46 -103 52 -103 6 0 37 69 68 153 64 169
174 456 248 647 l49 125 2 -285 c1 -157 1 -296 1 -309 -1 -14 4 -31 11 -40 9
-12 9 -13 0 -7 -12 7 -18 -12 -14 -37 6 -34 7 -67 3 -72 -6 -6 -5 -189 1 -219
5 -24 27 -34 27 -12 0 9 -4 16 -10 16 -5 0 -10 5 -10 11 0 5 5 7 10 4 10 -6
12 5 13 56 0 14 6 26 14 26 7 0 13 -4 13 -9 0 -4 -5 -8 -10 -8 -12 0 -9 -22 5
-32 7 -5 6 -8 0 -8 -6 0 -12 -16 -13 -36 -2 -20 1 -33 6 -30 5 3 8 -17 6 -44
-1 -28 2 -50 7 -50 5 0 10 17 10 38 l2 37 8 -45 c5 -25 10 -50 11 -57 1 -7 5
-10 10 -7 8 5 9 1 12 -35 2 -32 16 -36 17 -5 0 16 3 38 5 49 3 11 7 271 9 578
4 621 2 600 70 613 78 14 42 25 -76 22 l-122 -3 -98 -260 c-55 -143 -115 -300
-134 -350 -19 -49 -43 -114 -53 -143 l-19 -52 -12 27 c-7 16 -83 195 -168 398
-85 204 -158 373 -162 378 -4 4 -84 6 -177 5 -159 -3 -166 -4 -124 -16 57 -18
115 -75 129 -129 7 -27 10 -138 9 -316 l-3 -276 -108 145 c-60 79 -113 144
-118 144 -5 0 -8 4 -6 9 2 9 -71 111 -80 111 -3 0 6 -15 21 -34 14 -19 22 -37
17 -40 -5 -4 -20 11 -32 31 -13 21 -31 47 -41 57 -9 10 -15 23 -12 28 3 4 1 8
-3 8 -10 0 -105 126 -103 136 1 4 -3 10 -9 14 -14 8 -101 140 -101 151 0 5 -4
9 -9 9 -5 0 -12 9 -16 19 -6 19 -65 89 -65 78 0 -3 9 -21 20 -39 l19 -34 -23
-2 c-16 -1 -30 7 -40 24 -9 13 -21 22 -26 19 -4 -3 -6 5 -3 17 3 17 2 19 -5 9
-8 -11 -12 -9 -22 10 -17 30 -50 66 -50 52 0 -5 10 -25 23 -44 38 -57 41 -66
8 -29 -17 19 -31 39 -31 43 0 4 -10 18 -21 30 l-21 22 11 -22 c6 -13 8 -23 4
-23 -15 0 -73 40 -73 50 0 5 -4 10 -10 10 -6 0 -5 -11 2 -27z m268 -177 c0 -7
11 -23 25 -36 13 -12 24 -25 23 -29 -2 -19 4 -22 20 -10 15 13 16 12 4 -3 -14
-17 -8 -43 8 -33 4 3 7 -3 6 -13 0 -9 4 -16 11 -15 8 2 10 -4 6 -14 -4 -10 -2
-14 5 -10 6 4 20 -6 31 -21 17 -24 18 -29 4 -29 -9 0 -44 43 -80 99 -36 54
-68 96 -73 93 -5 -3 -12 0 -16 6 -4 8 -3 9 4 5 16 -10 15 7 0 23 -11 10 -10
11 5 6 9 -4 17 -13 17 -19z m89 -215 c42 -56 144 -200 155 -221 29 -50 -156
202 -213 290 l-22 35 23 -29 c13 -16 38 -50 57 -75z m88 -24 c7 -4 10 -14 6
-23 -3 -9 0 -14 8 -12 9 2 13 -4 11 -16 -2 -11 1 -15 8 -11 6 3 10 3 9 -2 -3
-20 2 -33 13 -30 7 1 13 -2 13 -8 3 -21 17 -45 25 -40 4 3 14 -3 21 -12 12
-15 12 -16 -1 -8 -8 6 -18 10 -21 10 -8 0 -44 45 -91 112 -33 46 -33 60 -1 40z
m214 -207 c6 0 7 -5 4 -10 -3 -6 1 -13 9 -16 9 -3 16 -12 16 -20 0 -8 5 -14
10 -14 6 0 10 -7 10 -16 0 -9 5 -12 13 -8 6 4 9 4 5 -1 -4 -4 -3 -14 3 -22 6
-7 9 -13 6 -13 -4 0 -25 25 -48 55 -23 30 -44 53 -48 50 -4 -2 -6 6 -5 18 3
31 6 34 11 15 2 -10 9 -18 14 -18z m1119 -235 c6 4 10 -1 10 -10 0 -9 -4 -13
-10 -10 -5 3 -10 1 -10 -4 0 -6 6 -11 13 -12 10 0 10 -2 0 -6 -9 -3 -13 -28
-13 -73 0 -38 -4 -72 -10 -75 -5 -3 -10 -11 -10 -16 0 -6 4 -8 9 -4 10 5 5
-60 -5 -77 -13 -20 -22 6 -19 54 2 49 2 50 -12 27 -10 -16 -12 -18 -7 -4 4 11
7 32 8 48 0 15 7 27 14 27 10 0 10 -5 1 -21 -6 -13 -7 -19 -1 -15 6 3 12 0 15
-6 2 -7 4 59 5 147 1 189 5 234 9 112 2 -53 8 -85 13 -82z m-34 -75 c-1 -37
-5 -45 -21 -47 -11 -2 -14 0 -7 3 6 3 12 21 12 40 0 25 -4 33 -12 28 -10 -6
-10 -4 0 7 7 8 13 47 13 104 l2 90 7 -90 c4 -49 7 -110 6 -135z m-885 33 c13
-16 12 -17 -3 -4 -17 13 -22 21 -14 21 2 0 10 -8 17 -17z m926 -55 c-3 -8 -6
-5 -6 6 -1 11 2 17 5 13 3 -3 4 -12 1 -19z m-833 -74 c3 -8 2 -12 -4 -9 -6 3
-10 10 -10 16 0 14 7 11 14 -7z m34 -60 c-4 -3 -12 5 -18 18 -12 22 -12 22 6
6 10 -10 15 -20 12 -24z m-44 -93 c-2 -2 1 -10 7 -18 6 -7 9 -13 6 -13 -2 0
-17 17 -33 37 l-28 37 26 -19 c14 -11 24 -22 22 -24z m773 -43 c-3 -8 -6 -5
-6 6 -1 11 2 17 5 13 3 -3 4 -12 1 -19z"/>
<path d="M690 1610 c6 -11 13 -20 16 -20 2 0 0 9 -6 20 -6 11 -13 20 -16 20
-2 0 0 -9 6 -20z"/>
<path d="M2042 870 c0 -14 2 -19 5 -12 2 6 2 18 0 25 -3 6 -5 1 -5 -13z"/>
<path d="M340 1980 c6 -11 13 -20 16 -20 2 0 0 9 -6 20 -6 11 -13 20 -16 20
-2 0 0 -9 6 -20z"/>
<path d="M516 1890 c14 -27 30 -50 35 -50 14 0 11 10 -18 56 -38 60 -49 56
-17 -6z"/>
<path d="M1180 726 c0 -2 8 -10 18 -17 15 -13 16 -12 3 4 -13 16 -21 21 -21
13z"/>
<path d="M2010 660 c0 -5 5 -10 10 -10 6 0 10 5 10 10 0 6 -4 10 -10 10 -5 0
-10 -4 -10 -10z"/>
</g>
</svg>
